# xmcd
#
# Track frame offsets: 
#        150
#        17860
#        34410
#        49740
#        66189
#        83114
#        103299
#        119968
#        136674
#        150282
#
# Disc length: 2292 seconds
#
# Revision: 0
# Processed by: cddbd v1.5.2PL0 Copyright (c) Steve Scherf et al.
# Submitted via: ExactAudioCopyFreeDBPlugin 1.0
#
DISCID=8708f20a
DTITLE=Red Sky July - Shadowbirds
DYEAR=2014
DGENRE=Americana
TTITLE0=Lay Down Your Love
TTITLE1=Here Then Gone
TTITLE2=Losing You
TTITLE3=Made for Each Other
TTITLE4=New Morning Light
TTITLE5=Renegade
TTITLE6=Any Day Now (with Jack Savoretti)
TTITLE7=Shadowbirds
TTITLE8=Warm my Heart
TTITLE9=Solitary Women
EXTD=
EXTT0=
EXTT1=
EXTT2=
EXTT3=
EXTT4=
EXTT5=
EXTT6=
EXTT7=
EXTT8=
EXTT9=
PLAYORDER=
